#N canvas 50 63 579 659 10;
#X obj 296 75 *;
#X obj 257 390 +~;
#X obj 341 516 *~;
#X obj 297 348 samphold~;
#X obj 297 163 sig~;
#X obj 16 129 samplerate~;
#X obj 16 88 t b f;
#X obj 16 171 /;
#X obj 275 257 samphold~;
#X obj 257 309 *~;
#X obj 16 240 *~;
#X obj 16 210 sig~;
#X obj 121 117 sig~;
#X obj 417 227 *~ 4;
#X obj 417 265 clip~ 0 1;
#X obj 417 397 *~ 512;
#X obj 416 424 tabread4~ hanning;
#X obj 314 50 r sampleSize;
#X obj 296 16 r position;
#X obj 16 16 r frequency;
#X obj 121 16 r tuning;
#X obj 341 548 throw~ upa;
#X obj 417 117 inlet~;
#X obj 442 160 r granSize;
#X obj 257 426 tabread4~ gui;
#X connect 0 0 4 0;
#X connect 1 0 24 0;
#X connect 2 0 21 0;
#X connect 3 0 1 1;
#X connect 4 0 3 0;
#X connect 5 0 7 0;
#X connect 6 0 5 0;
#X connect 6 1 7 1;
#X connect 7 0 11 0;
#X connect 8 0 9 1;
#X connect 9 0 1 0;
#X connect 10 0 8 0;
#X connect 11 0 10 0;
#X connect 12 0 10 1;
#X connect 13 0 14 0;
#X connect 14 0 15 0;
#X connect 15 0 16 0;
#X connect 16 0 2 1;
#X connect 17 0 0 1;
#X connect 18 0 0 0;
#X connect 19 0 6 0;
#X connect 20 0 12 0;
#X connect 22 0 9 0;
#X connect 22 0 8 1;
#X connect 22 0 3 1;
#X connect 22 0 13 0;
#X connect 23 0 13 1;
#X connect 24 0 2 0;
