#N canvas 547 74 510 580 10;
#X obj 116 97 soundfiler;
#X obj 68 165 i;
#X obj 66 438 line~;
#X floatatom 140 128 15 0 0 0 - - -, f 15;
#X obj 90 260 /;
#X obj 113 222 samplerate~;
#X obj 67 195 t f f b;
#X obj 66 340 pack f f;
#X msg 66 405 \$1 \$2;
#X obj 66 371 t l b;
#X msg 119 402 0 0;
#X obj 86 288 * 1000;
#X obj 116 41 openpanel;
#X obj 116 19 inlet;
#X obj 68 106 inlet;
#X obj 87 312 / 1;
#X obj 284 234 expr 44100 / $f1;
#X obj 284 283 phasor~;
#X floatatom 317 261 10 0 0 0 - - -, f 10;
#X obj 284 339 *~;
#X obj 66 469 tabread4~ sample1;
#X obj 66 500 throw~ channel1fx;
#X obj 284 448 throw~ channel1;
#X obj 284 409 tabread4~ sample1;
#X obj 302 314 r sampleSizeSample1;
#X obj 116 152 s sampleSizeSample1;
#X msg 116 69 read -resize \$1 sample1;
#X obj 321 362 throw~ snapshot;
#X connect 0 0 1 1;
#X connect 0 0 3 0;
#X connect 0 0 16 0;
#X connect 0 0 25 0;
#X connect 1 0 6 0;
#X connect 2 0 20 0;
#X connect 4 0 11 0;
#X connect 5 0 4 1;
#X connect 6 0 7 0;
#X connect 6 1 4 0;
#X connect 6 2 5 0;
#X connect 7 0 9 0;
#X connect 8 0 2 0;
#X connect 9 0 8 0;
#X connect 9 1 10 0;
#X connect 10 0 2 0;
#X connect 11 0 15 0;
#X connect 12 0 26 0;
#X connect 13 0 12 0;
#X connect 14 0 1 0;
#X connect 15 0 7 1;
#X connect 16 0 17 0;
#X connect 16 0 18 0;
#X connect 17 0 19 0;
#X connect 19 0 23 0;
#X connect 19 0 27 0;
#X connect 20 0 21 0;
#X connect 23 0 22 0;
#X connect 24 0 19 1;
#X connect 26 0 0 0;
