#N canvas 491 37 789 601 10;
#X obj 116 97 soundfiler;
#X obj 68 165 i;
#X obj 66 438 line~;
#X floatatom 250 114 15 0 0 0 - - -, f 15;
#X obj 90 260 /;
#X obj 113 222 samplerate~;
#X obj 67 195 t f f b;
#X obj 66 340 pack f f;
#X msg 66 405 \$1 \$2;
#X obj 66 371 t l b;
#X msg 119 402 0 0;
#X obj 86 288 * 1000;
#X floatatom 177 298 5 0 0 0 - - -, f 5;
#X obj 116 41 openpanel;
#X obj 116 19 inlet;
#X obj 68 106 inlet;
#X obj 87 312 / 1;
#X obj 66 468 tabread4~ sample2;
#X msg 116 69 read -resize \$1 sample2;
#X obj 339 223 expr 44100 / $f1;
#X obj 339 272 phasor~;
#X floatatom 372 250 10 0 0 0 - - -, f 10;
#X obj 339 328 *~;
#X obj 66 508 throw~ channel2fx;
#X obj 339 398 tabread4~ sample2;
#X obj 339 471 throw~ channel2;
#X obj 116 152 s sampleSizeSample2;
#X obj 357 303 r sampleSizeSample2;
#X obj 177 271 r freq;
#X obj 544 317 metro 50;
#X obj 544 345 snapshot~;
#X floatatom 544 373 10 0 0 0 - - -, f 10;
#X obj 544 425 /;
#X floatatom 544 450 10 0 0 0 - - -, f 10;
#X obj 594 478 hsl 128 15 0 1 0 0 empty empty empty -2 -8 0 10 -262144
-1 -1 7026 1;
#X obj 535 280 loadbang;
#X obj 562 399 r sampleSizeSample2;
#X connect 0 0 1 1;
#X connect 0 0 3 0;
#X connect 0 0 19 0;
#X connect 0 0 26 0;
#X connect 1 0 6 0;
#X connect 2 0 17 0;
#X connect 4 0 11 0;
#X connect 5 0 4 1;
#X connect 6 0 7 0;
#X connect 6 1 4 0;
#X connect 6 2 5 0;
#X connect 7 0 9 0;
#X connect 8 0 2 0;
#X connect 9 0 8 0;
#X connect 9 1 10 0;
#X connect 10 0 2 0;
#X connect 11 0 16 0;
#X connect 12 0 16 1;
#X connect 13 0 18 0;
#X connect 14 0 13 0;
#X connect 15 0 1 0;
#X connect 16 0 7 1;
#X connect 17 0 23 0;
#X connect 18 0 0 0;
#X connect 19 0 20 0;
#X connect 19 0 21 0;
#X connect 20 0 22 0;
#X connect 22 0 24 0;
#X connect 22 0 30 0;
#X connect 24 0 25 0;
#X connect 27 0 22 1;
#X connect 28 0 12 0;
#X connect 29 0 30 0;
#X connect 30 0 31 0;
#X connect 31 0 32 0;
#X connect 32 0 33 0;
#X connect 33 0 34 0;
#X connect 35 0 29 0;
#X connect 36 0 32 1;
