#N canvas 175 23 138 208 10;
#X obj 25 17 inlet;
#X obj 52 165 outlet;
#X obj 25 80 until;
#X obj 25 110 f 0;
#X obj 25 138 t f f;
#X obj 72 109 + 1;
#X obj 25 46 t f b;
#X msg 71 80 0;
#X connect 0 0 6 0;
#X connect 2 0 3 0;
#X connect 3 0 4 0;
#X connect 4 0 5 0;
#X connect 4 1 1 0;
#X connect 5 0 3 1;
#X connect 6 0 2 0;
#X connect 6 1 7 0;
#X connect 7 0 3 1;
